<?xml version="1.0" encoding="UTF-8" standalone="no"?>
<!-- Created with Inkscape (http://www.inkscape.org/) -->

<svg
   xmlns:dc="http://purl.org/dc/elements/1.1/"
   xmlns:cc="http://creativecommons.org/ns#"
   xmlns:rdf="http://www.w3.org/1999/02/22-rdf-syntax-ns#"
   xmlns:svg="http://www.w3.org/2000/svg"
   xmlns="http://www.w3.org/2000/svg"
   xmlns:xlink="http://www.w3.org/1999/xlink"
   xmlns:sodipodi="http://sodipodi.sourceforge.net/DTD/sodipodi-0.dtd"
   xmlns:inkscape="http://www.inkscape.org/namespaces/inkscape"
   width="1080"
   height="1080"
   viewBox="0 0 285.74999 285.75001"
   version="1.1"
   id="svg8"
   inkscape:version="0.92.4 (f8dce91, 2019-08-02)"
   sodipodi:docname="logo.svg"
   inkscape:export-filename="/home/douglas/under00/design/logo.png"
   inkscape:export-xdpi="96"
   inkscape:export-ydpi="96">
  <defs
     id="defs2">
    <inkscape:perspective
       sodipodi:type="inkscape:persp3d"
       inkscape:vp_x="24.776132 : 71.793736 : 1"
       inkscape:vp_y="0 : 1000 : 0"
       inkscape:vp_z="310.52613 : 71.793736 : 1"
       inkscape:persp3d-origin="167.65114 : 24.168739 : 1"
       id="perspective834" />
    <linearGradient
       inkscape:collect="always"
       id="linearGradient3729">
      <stop
         style="stop-color:#ff00c1;stop-opacity:1"
         offset="0"
         id="stop3725" />
      <stop
         style="stop-color:#4900ff;stop-opacity:1"
         offset="1"
         id="stop3727" />
    </linearGradient>
    <linearGradient
       inkscape:collect="always"
       xlink:href="#linearGradient3729"
       id="linearGradient3731"
       x1="129.26785"
       y1="8.2261724"
       x2="129.26785"
       y2="300.02377"
       gradientUnits="userSpaceOnUse" />
    <mask
       maskUnits="userSpaceOnUse"
       id="mask4743">
      <g
         aria-label="00"
         style="font-style:normal;font-variant:normal;font-weight:normal;font-stretch:normal;font-size:215.66441345px;line-height:1.25;font-family:'Noto Sans Mono';-inkscape-font-specification:'Noto Sans Mono';letter-spacing:0px;word-spacing:0px;fill:#ffffff;fill-opacity:1;stroke:none;stroke-width:5.39161015"
         id="g4749"
         mask="none">
        <path
           d="m 78.002132,233.27385 q -26.958051,0 -39.250923,-20.91945 -12.292872,-21.13511 -12.292872,-58.44506 0,-25.01707 5.175946,-42.48589 5.175946,-17.684479 16.390496,-26.958048 11.430214,-9.489235 29.977353,-9.489235 27.173718,0 39.466588,20.703784 12.50854,20.703779 12.50854,58.229389 0,25.01707 -5.17595,42.70156 -5.17595,17.68448 -16.60616,27.17371 -11.430214,9.48924 -30.193018,9.48924 z M 44.574148,153.90934 q 0,9.48924 0.646993,17.90015 0.862658,8.19525 2.372309,14.88084 L 98.705916,100.2089 q -7.979583,-8.195244 -20.703784,-8.195244 -17.468817,0 -25.4484,15.312174 -7.979584,15.09651 -7.979584,46.58351 z m 33.427984,62.32702 q 17.684482,0 26.095398,-15.09651 8.41091,-15.31217 8.41091,-47.23051 0,-22.4291 -4.31329,-36.66295 L 55.788698,205.6688 q 7.979583,10.56756 22.213434,10.56756 z"
           style="font-style:normal;font-variant:normal;font-weight:normal;font-stretch:normal;font-family:'Noto Sans Mono';-inkscape-font-specification:'Noto Sans Mono';fill:#ffffff;stroke-width:5.39161015"
           id="path4745"
           inkscape:connector-curvature="0" />
        <path
           d="m 207.31654,233.27385 q -26.95805,0 -39.25092,-20.91945 -12.29288,-21.13511 -12.29288,-58.44506 0,-25.01707 5.17595,-42.48589 5.17595,-17.684479 16.3905,-26.958048 11.43021,-9.489235 29.97735,-9.489235 27.17372,0 39.46659,20.703784 12.50853,20.703779 12.50853,58.229389 0,25.01707 -5.17594,42.70156 -5.17595,17.68448 -16.60616,27.17371 -11.43022,9.48924 -30.19302,9.48924 z m -33.42798,-79.36451 q 0,9.48924 0.64699,17.90015 0.86266,8.19525 2.37231,14.88084 l 51.11246,-86.48143 q -7.97958,-8.195244 -20.70378,-8.195244 -17.46882,0 -25.4484,15.312174 -7.97958,15.09651 -7.97958,46.58351 z m 33.42798,62.32702 q 17.68448,0 26.09539,-15.09651 8.41092,-15.31217 8.41092,-47.23051 0,-22.4291 -4.31329,-36.66295 l -52.40645,88.42241 q 7.97958,10.56756 22.21343,10.56756 z"
           style="font-style:normal;font-variant:normal;font-weight:normal;font-stretch:normal;font-family:'Noto Sans Mono';-inkscape-font-specification:'Noto Sans Mono';fill:#ffffff;stroke-width:5.39161015"
           id="path4747"
           inkscape:connector-curvature="0" />
      </g>
    </mask>
    <linearGradient
       inkscape:collect="always"
       xlink:href="#linearGradient3729"
       id="linearGradient4543"
       gradientUnits="userSpaceOnUse"
       x1="136.07143"
       y1="234.25594"
       x2="136.07143"
       y2="71.726173" />
    <linearGradient
       inkscape:collect="always"
       xlink:href="#linearGradient3729"
       id="linearGradient4545"
       gradientUnits="userSpaceOnUse"
       x1="136.07143"
       y1="234.25594"
       x2="136.07143"
       y2="71.726173" />
    <clipPath
       clipPathUnits="userSpaceOnUse"
       id="clipPath833">
      <path
         sodipodi:type="star"
         style="opacity:0.5;fill:#ffffff;fill-opacity:1;stroke:none;stroke-width:0.26458332;stroke-opacity:1"
         id="path835"
         sodipodi:sides="3"
         sodipodi:cx="66.136459"
         sodipodi:cy="224.00302"
         sodipodi:r1="43.531307"
         sodipodi:r2="21.765654"
         sodipodi:arg1="0.35470565"
         sodipodi:arg2="1.4019032"
         inkscape:flatsided="false"
         inkscape:rounded="0"
         inkscape:randomized="0"
         d="m 106.95789,239.12207 -37.162813,6.33691 -37.162812,6.33691 13.09348,-35.35239 13.093479,-35.3524 24.069332,29.01549 z"
         inkscape:transform-center-x="-12.775346"
         inkscape:transform-center-y="-25.502455"
         transform="matrix(3.4918504,0,0,3.373551,-100.21353,-588.35218)" />
    </clipPath>
  </defs>
  <sodipodi:namedview
     id="base"
     pagecolor="#ffffff"
     bordercolor="#666666"
     borderopacity="1.0"
     inkscape:pageopacity="0.0"
     inkscape:pageshadow="2"
     inkscape:zoom="0.35"
     inkscape:cx="-498.57143"
     inkscape:cy="512.40039"
     inkscape:document-units="mm"
     inkscape:current-layer="layer1"
     showgrid="false"
     units="px"
     inkscape:snap-grids="true"
     inkscape:window-width="1366"
     inkscape:window-height="716"
     inkscape:window-x="0"
     inkscape:window-y="0"
     inkscape:window-maximized="1" />
  <metadata
     id="metadata5">
    <rdf:RDF>
      <cc:Work
         rdf:about="">
        <dc:format>image/svg+xml</dc:format>
        <dc:type
           rdf:resource="http://purl.org/dc/dcmitype/StillImage" />
        <dc:title />
      </cc:Work>
    </rdf:RDF>
  </metadata>
  <g
     inkscape:label="Camada 1"
     inkscape:groupmode="layer"
     id="layer1"
     transform="translate(0,-11.249983)">
    <rect
       id="rect3721"
       width="285.75"
       height="285.75"
       x="0"
       y="11.25"
       style="stroke-width:0.39067379;fill:url(#linearGradient3731);fill-opacity:1;opacity:0.5"
       clip-path="url(#clipPath833)" />
    <path
       d="m 78.002132,233.27385 q -26.958051,0 -39.250923,-20.91945 -12.292872,-21.13511 -12.292872,-58.44506 0,-25.01707 5.175946,-42.48589 5.175946,-17.684479 16.390496,-26.958048 11.430214,-9.489235 29.977353,-9.489235 27.173718,0 39.466588,20.703784 12.50854,20.703779 12.50854,58.229389 0,25.01707 -5.17595,42.70156 -5.17595,17.68448 -16.60616,27.17371 -11.430214,9.48924 -30.193018,9.48924 z M 44.574148,153.90934 q 0,9.48924 0.646993,17.90015 0.862658,8.19525 2.372309,14.88084 L 98.705916,100.2089 q -7.979583,-8.195244 -20.703784,-8.195244 -17.468817,0 -25.4484,15.312174 -7.979584,15.09651 -7.979584,46.58351 z m 33.427984,62.32702 q 17.684482,0 26.095398,-15.09651 8.41091,-15.31217 8.41091,-47.23051 0,-22.4291 -4.31329,-36.66295 L 55.788698,205.6688 q 7.979583,10.56756 22.213434,10.56756 z"
       style="font-style:normal;font-variant:normal;font-weight:normal;font-stretch:normal;font-size:215.66441345px;line-height:1.25;font-family:'Noto Sans Mono';-inkscape-font-specification:'Noto Sans Mono';letter-spacing:0px;word-spacing:0px;fill:url(#linearGradient4543);fill-opacity:1;stroke:none;stroke-width:5.39161015;stroke-opacity:1"
       id="path4745-7"
       inkscape:connector-curvature="0" />
    <path
       d="m 207.31654,233.27385 q -26.95805,0 -39.25092,-20.91945 -12.29288,-21.13511 -12.29288,-58.44506 0,-25.01707 5.17595,-42.48589 5.17595,-17.684479 16.3905,-26.958048 11.43021,-9.489235 29.97735,-9.489235 27.17372,0 39.46659,20.703784 12.50853,20.703779 12.50853,58.229389 0,25.01707 -5.17594,42.70156 -5.17595,17.68448 -16.60616,27.17371 -11.43022,9.48924 -30.19302,9.48924 z m -33.42798,-79.36451 q 0,9.48924 0.64699,17.90015 0.86266,8.19525 2.37231,14.88084 l 51.11246,-86.48143 q -7.97958,-8.195244 -20.70378,-8.195244 -17.46882,0 -25.4484,15.312174 -7.97958,15.09651 -7.97958,46.58351 z m 33.42798,62.32702 q 17.68448,0 26.09539,-15.09651 8.41092,-15.31217 8.41092,-47.23051 0,-22.4291 -4.31329,-36.66295 l -52.40645,88.42241 q 7.97958,10.56756 22.21343,10.56756 z"
       style="font-style:normal;font-variant:normal;font-weight:normal;font-stretch:normal;font-size:215.66441345px;line-height:1.25;font-family:'Noto Sans Mono';-inkscape-font-specification:'Noto Sans Mono';letter-spacing:0px;word-spacing:0px;fill:url(#linearGradient4545);fill-opacity:1;stroke:none;stroke-width:5.39161015;stroke-opacity:1"
       id="path4747-5"
       inkscape:connector-curvature="0" />
    <g
       aria-label="under"
       style="font-style:normal;font-variant:normal;font-weight:normal;font-stretch:normal;font-size:97.88733673px;line-height:1.25;font-family:'Raybent Mango';-inkscape-font-specification:'Raybent Mango';letter-spacing:0px;word-spacing:0px;fill:#ffffff;fill-opacity:1;stroke:none;stroke-width:2.44718313;opacity:1"
       id="text3725">
      <path
         d="m 90.926271,164.25448 q -1.46831,3.13239 -3.915494,6.46056 -2.349296,3.32817 -5.188029,6.36268 -2.838732,3.0345 -5.971127,5.57958 -3.132395,2.54507 -6.069015,4.20915 -4.40493,1.66409 -7.439438,-0.19577 -2.93662,-1.76198 -3.523944,-5.57958 -1.272535,1.07676 -2.251409,2.05563 -0.978873,0.97888 -2.055634,1.85986 -4.111268,3.52395 -9.592959,1.17465 -2.54507,-1.07676 -3.915493,-2.93662 -1.46831,-1.85986 -1.664085,-4.79648 -0.195774,-2.74085 0.880986,-6.85211 1.076761,-4.20916 3.132395,-8.22254 1.957747,-4.01338 4.79648,-7.04789 2.838732,-3.13239 6.264789,-3.71972 0.978873,0 1.566197,0.68521 0.685212,0.68522 0.39155,1.5662 -0.293662,1.07676 -0.685212,2.05564 -0.391549,0.97887 -0.880986,2.05563 -2.251408,5.48169 -4.40493,10.57183 -2.153521,5.09014 -2.349296,10.47395 -0.09789,1.85986 0.685212,2.44718 0.783098,0.58732 1.957746,0.29366 1.272536,-0.29366 2.740846,-1.27253 1.46831,-1.07676 2.740845,-2.44719 1.370423,-1.37042 2.349296,-2.83873 0.978874,-1.46831 1.272536,-2.74084 0.880986,-2.64296 1.664084,-4.60071 0.880986,-2.05563 1.761972,-3.81761 0.880986,-1.76197 1.957747,-3.52394 1.174648,-1.76197 2.740846,-3.81761 2.055634,-2.15352 4.502817,-3.91549 2.055634,-0.68521 2.93662,0 0.880986,0.68521 0.978874,2.05564 0.195774,1.27253 -0.195775,2.83873 -0.293662,1.46831 -0.685212,2.25141 -1.07676,2.64295 -2.642958,5.77535 -1.566197,3.13239 -2.838732,6.1669 -1.272536,2.93662 -1.761972,5.48169 -0.489437,2.44719 0.587324,3.71972 2.642958,-0.97887 5.48169,-3.03451 2.838733,-2.15352 5.579579,-4.79648 2.838732,-2.64295 5.48169,-5.48169 2.642959,-2.93662 4.698593,-5.48169 0.391549,0.68521 0.880986,0.97888 z"
         style="font-style:normal;font-variant:normal;font-weight:normal;font-stretch:normal;font-family:'Raybent Mango';-inkscape-font-specification:'Raybent Mango';fill:#ffffff;stroke-width:2.44718313;fill-opacity:1"
         id="path4640" />
      <path
         d="m 115.46081,155.34673 q 2.25141,0 3.71972,1.17465 1.46831,1.17464 2.15352,2.83873 0.7831,1.66408 0.7831,3.52394 0,1.76198 -0.58732,3.03451 -1.07676,1.95775 -2.83873,4.30704 -1.66409,2.25141 -3.32817,4.60071 -1.5662,2.34929 -2.64296,4.6007 -1.07676,2.25141 -0.97887,4.20916 0.68521,0.7831 2.44718,0.19577 1.76197,-0.68521 4.11127,-2.25141 2.44718,-1.56619 5.28591,-3.71971 2.83874,-2.25141 5.57958,-4.60071 2.83873,-2.3493 5.28592,-4.6007 2.44718,-2.3493 4.20915,-4.11127 1.37043,0.48943 1.07676,0.97887 -0.29366,0.48944 -0.48943,0.97887 -1.76198,2.83874 -4.89437,5.97113 -3.13239,3.1324 -6.65634,6.06902 -3.52394,2.93662 -6.95,5.3838 -3.42606,2.44718 -5.87324,3.91549 -1.85986,1.07676 -4.30704,1.37043 -2.44719,0.39155 -4.69859,-0.97888 -2.25141,-1.37042 -3.32817,-3.32817 -1.07676,-1.95774 -0.58733,-4.30704 0.68521,-3.03451 1.95775,-5.67746 1.37042,-2.74085 3.03451,-5.18803 1.76197,-2.44719 3.52394,-4.6986 1.85986,-2.34929 3.52394,-4.6007 0.58733,-0.68521 0.29367,-0.88099 -0.29367,-0.19577 -0.88099,-0.0979 -0.58732,0 -1.37042,0.29366 -0.68521,0.19577 -0.97888,0.39155 -4.01338,2.15352 -7.24366,5.09014 -3.13239,2.93662 -5.677464,6.36268 -0.880986,1.17464 -2.447184,3.52394 -1.46831,2.3493 -3.230282,4.79648 -1.664085,2.44718 -3.328169,4.50282 -1.664085,1.95774 -2.838733,2.34929 -3.523944,-0.58732 -4.013381,-3.91549 -0.391549,-2.83873 0.391549,-6.36268 0.685212,-3.52394 2.251409,-7.04789 1.566198,-3.62183 3.621832,-6.85211 2.153521,-3.23028 4.502817,-5.57958 0.587324,-0.58732 1.174648,-1.27253 0.685212,-0.68521 1.46831,-1.17465 0.783099,-0.58732 1.566198,-0.68521 0.880986,-0.0979 1.957746,0.58732 0.880984,0.58733 0.978874,1.27254 0.0979,0.68521 -0.195775,1.46831 -0.195775,0.7831 -0.685211,1.5662 -0.39155,0.78309 -0.685212,1.46831 -0.587324,1.56619 -1.272535,3.13239 -0.685211,1.46831 -1.370423,3.03451 2.251409,-2.05564 4.502816,-3.9155 2.25141,-1.85986 4.60071,-3.32817 2.34929,-1.56619 4.89436,-2.54507 2.54507,-0.97887 5.48169,-1.27253 z"
         style="font-style:normal;font-variant:normal;font-weight:normal;font-stretch:normal;font-family:'Raybent Mango';-inkscape-font-specification:'Raybent Mango';fill:#ffffff;stroke-width:2.44718313;fill-opacity:1"
         id="path4642" />
      <path
         d="m 185.65521,163.07983 q -0.19577,1.07676 -1.37042,2.93662 -1.07676,1.76197 -2.74085,3.91549 -1.5662,2.05564 -3.62183,4.40493 -2.05563,2.25141 -4.11127,4.40493 -2.05563,2.15352 -4.11127,4.01338 -1.95774,1.76197 -3.52394,2.93662 -2.54507,1.95775 -5.28592,1.5662 -2.64295,-0.29366 -4.6007,-2.64296 -1.07676,-1.17465 -1.66409,-2.64296 -0.48943,-1.56619 -1.17464,-2.93662 -1.95775,1.95775 -3.9155,3.81761 -1.85986,1.85986 -4.30704,2.93662 -2.15352,0.97887 -4.30704,0.88099 -2.15352,-0.0979 -4.01338,-1.07676 -1.76198,-1.07677 -3.03451,-2.83874 -1.37042,-1.85986 -1.85986,-4.30704 -0.48944,-2.93662 0,-5.77535 0.48944,-3.1324 1.76197,-6.46057 1.27254,-3.42605 3.1324,-6.36267 1.95774,-3.03451 4.50281,-5.28592 2.54507,-2.3493 5.57958,-3.42606 3.03451,-1.07676 6.46057,-0.58732 3.52394,0.48944 7.34155,3.13239 2.54507,-4.30704 4.40493,-8.41831 1.95774,-4.20915 4.50281,-8.32042 1.17465,-1.95775 2.64296,-3.71972 1.5662,-1.85986 4.40493,-2.44718 2.3493,-0.48944 3.1324,0.29366 0.7831,0.68521 0.68521,1.95775 0,1.27253 -0.58733,2.54507 -0.48943,1.27253 -0.78309,1.85986 -3.32817,6.06901 -6.16691,11.74648 -2.74084,5.67746 -5.3838,11.5507 -0.58732,1.46831 -1.85986,4.60071 -1.27253,3.0345 -2.3493,6.46056 -1.07676,3.32817 -1.56619,6.46057 -0.48944,3.13239 0.58732,4.69859 0.88099,0 2.64296,-1.17465 1.85986,-1.17465 4.01338,-3.03451 2.15352,-1.85986 4.50282,-4.11127 2.44718,-2.34929 4.6007,-4.6007 2.15352,-2.25141 3.81761,-4.20916 1.66408,-1.95774 2.54507,-3.13239 0.39155,-0.29366 0.58732,0 0.19578,0.19577 0.48944,0.39155 z m -33.77113,-3.81761 q 0.7831,1.17465 1.76197,1.5662 1.07676,0.29366 2.05564,0 0.97887,-0.29366 1.56619,-1.07676 0.68521,-0.7831 0.68521,-1.76197 0.0979,-1.37043 -0.78309,-2.05564 -0.7831,-0.7831 -2.15353,-0.58732 -2.64295,0.19577 -4.50281,1.46831 -1.85986,1.27253 -3.42606,3.13239 -2.25141,2.64296 -3.71972,5.77536 -1.46831,3.13239 -2.54507,6.46056 -0.29366,1.17465 -0.58732,3.1324 -0.19578,1.95774 0.0979,3.62183 0.29367,1.66408 1.27254,2.54507 1.07676,0.88098 3.32817,-0.0979 2.64296,-1.27254 4.6007,-3.23028 2.05564,-1.95775 3.62183,-4.30704 1.5662,-2.44719 2.64296,-5.09015 1.07676,-2.64295 1.66409,-5.3838 -1.17465,0.58732 -2.3493,0.29366 -1.07676,-0.29366 -1.95775,-0.97887 -0.88098,-0.7831 -1.27253,-1.66409 -0.39155,-0.97887 0,-1.76197 z"
         style="font-style:normal;font-variant:normal;font-weight:normal;font-stretch:normal;font-family:'Raybent Mango';-inkscape-font-specification:'Raybent Mango';fill:#ffffff;stroke-width:2.44718313;fill-opacity:1"
         id="path4644" />
      <path
         d="m 187.13575,166.79955 q -1.76197,1.95774 -2.3493,4.99225 -0.58732,2.93662 0.0979,5.57958 0.68521,2.64296 2.54507,4.30704 1.95775,1.5662 5.38381,0.88099 3.13239,-0.88099 6.55845,-3.03451 3.42605,-2.15352 6.55845,-4.99225 3.13239,-2.83874 5.67746,-6.06902 2.54508,-3.23028 3.9155,-6.26479 0.19577,1.17465 0.39155,1.85986 0.19577,0.58733 0,0.97887 -2.05564,3.81761 -4.99226,7.83099 -2.83873,3.9155 -6.46056,7.14578 -3.52394,3.23028 -7.7331,5.28591 -4.11127,2.05564 -8.61409,2.05564 -4.40493,-0.19578 -7.53732,-2.93662 -3.23028,-2.74085 -4.20916,-6.95 -0.68521,-3.1324 -0.48943,-6.06902 0.19577,-2.93662 1.56619,-5.67746 1.76198,-3.52395 4.30705,-6.06902 2.54507,-2.54507 6.1669,-4.20915 2.05563,-1.07676 4.30704,-1.27254 2.25141,-0.19577 4.60071,0.29366 2.54507,0.48944 4.30704,1.85986 1.85986,1.27254 2.83873,3.81761 0.88099,2.34929 0.29366,4.30704 -0.58732,1.85986 -2.05563,3.52394 -2.74084,3.03451 -6.85211,3.52395 -2.54507,0.19577 -4.79648,-0.7831 -2.25141,-1.07676 -3.42606,-3.91549 z m 2.74085,-2.74085 q 0.78309,3.03451 2.05563,4.01338 1.37042,0.88099 3.62183,0.29366 2.83873,-0.68521 4.30704,-3.23028 0.88099,-1.76197 -0.0979,-3.23028 -0.88099,-1.5662 -2.93662,-1.66408 -1.76197,-0.0979 -3.71972,1.17464 -1.85986,1.27254 -3.23028,2.64296 z"
         style="font-style:normal;font-variant:normal;font-weight:normal;font-stretch:normal;font-family:'Raybent Mango';-inkscape-font-specification:'Raybent Mango';fill:#ffffff;stroke-width:2.44718313;fill-opacity:1"
         id="path4646" />
      <path
         d="m 225.96337,161.31786 q 2.74085,-2.15353 5.48169,-4.20916 2.83874,-2.15352 6.16691,-2.93662 1.46831,-0.39155 2.93662,-0.0979 1.46831,0.29367 2.64295,1.17465 1.17465,0.7831 1.95775,2.05564 0.88099,1.17464 1.17465,2.74084 0.48944,3.03451 -1.07676,5.77535 -1.5662,2.64296 -4.40493,3.71972 -1.27254,0.39155 -2.54507,0.19578 -1.27254,-0.29367 -2.25141,-0.97888 -0.97887,-0.7831 -1.37042,-1.85986 -0.39155,-1.17464 0.19577,-2.64295 0.68521,1.07676 1.76197,1.56619 1.17465,0.39155 2.25141,-0.0979 0.7831,-0.29367 1.27254,-1.07676 0.58732,-0.88099 0.7831,-1.85986 0.29366,-0.97888 0.0979,-1.95775 -0.0979,-1.07676 -0.68521,-1.85986 -0.58732,-0.68521 -1.5662,-0.7831 -0.88098,-0.19577 -1.85985,0.0979 -0.97888,0.19577 -1.85986,0.68521 -0.7831,0.39155 -1.37043,0.7831 -3.8176,2.54507 -6.26479,5.3838 -2.34929,2.74085 -4.01338,5.77535 -1.56619,2.93663 -2.64296,6.26479 -0.97887,3.23029 -2.15352,6.75423 -0.48943,1.85986 -1.76197,2.44718 -1.27253,0.48944 -2.54507,0.0979 -3.62183,-1.07676 -3.62183,-4.89437 -0.19578,-6.75422 2.25141,-13.50845 2.44718,-6.85211 5.87324,-13.50845 0.58732,-0.97887 1.76197,-1.95775 1.27254,-1.07676 2.64296,-1.66408 1.37042,-0.58733 2.74084,-0.58733 1.46831,0 2.44719,0.88099 0.7831,0.7831 0.68521,1.66408 0,0.7831 -0.29366,1.5662 -0.29367,0.68521 -0.7831,1.66409 -0.48944,0.88098 -0.97888,1.85986 -0.39155,0.97887 -0.78309,1.85986 -0.29367,0.88098 -0.29367,1.46831 z"
         style="font-style:normal;font-variant:normal;font-weight:normal;font-stretch:normal;font-family:'Raybent Mango';-inkscape-font-specification:'Raybent Mango';fill:#ffffff;stroke-width:2.44718313;fill-opacity:1"
         id="path4648" />
    </g>
  </g>
</svg>
